<svg xmlns="http://www.w3.org/2000/svg" xmlns:xlink="http://www.w3.org/1999/xlink" width="500" zoomAndPan="magnify" viewBox="0 0 375 374.999991" height="500" preserveAspectRatio="xMidYMid meet" version="1.2"><g id="5c12247810"><rect x="0" width="375" y="0" height="374.999991" style="fill:#ffffff;fill-opacity:1;stroke:none;"/><rect x="0" width="375" y="0" height="374.999991" style="fill:#1a1a1a;fill-opacity:1;stroke:none;"/><path style=" stroke:none;fill-rule:nonzero;fill:#fef3c7;fill-opacity:1;" d="M 155.726562 170.933594 C 152.535156 168.460938 150.019531 169.988281 147.234375 172.753906 C 140.761719 179.179688 134.136719 185.46875 127.261719 191.421875 C 124.453125 193.847656 124.207031 195.734375 125.441406 199.105469 C 129.710938 210.808594 124.296875 222.695312 113.0625 227.097656 C 102.011719 231.433594 88.777344 225.503906 83.949219 214.023438 C 79.207031 202.8125 83.722656 190.007812 94.257812 184.90625 C 100.28125 181.988281 106.503906 181.851562 112.457031 184.726562 C 115.175781 186.03125 116.746094 185.671875 118.769531 183.738281 C 126.09375 176.730469 133.53125 169.832031 140.964844 162.957031 C 142.671875 161.386719 143.101562 159.925781 142.179688 157.632812 C 139.617188 151.296875 139.753906 144.917969 143.011719 138.851562 C 143.976562 137.03125 143.660156 135.886719 142.359375 134.582031 C 135.664062 127.820312 128.945312 121.058594 122.320312 114.230469 C 120.859375 112.726562 119.421875 112.164062 117.511719 113.195312 C 117.332031 113.285156 117.128906 113.332031 116.925781 113.375 C 103.425781 117.261719 92.574219 112.746094 90.238281 102.234375 C 87.921875 91.832031 98.304688 79.835938 111.042969 78.21875 C 111.648438 78.148438 112.320312 77.96875 112.859375 78.171875 C 123.441406 81.96875 130.226562 74.847656 137.6875 69.636719 C 139.347656 68.46875 141.03125 67.34375 142.808594 66.355469 C 146.898438 64.0625 150.851562 62.199219 147.234375 56.089844 C 145.390625 52.988281 148.019531 49.976562 150.871094 47.957031 C 159.433594 41.914062 177.269531 44.226562 184.101562 52.269531 C 187.875 56.71875 186.75 62.421875 181.3125 65.613281 C 174.957031 69.34375 168.015625 69.074219 161.207031 67.523438 C 158.128906 66.828125 155.816406 67.074219 153.320312 68.894531 C 146.941406 73.542969 140.449219 78.082031 133.957031 82.574219 C 131.394531 84.351562 130.023438 85.992188 131.460938 89.496094 C 133.035156 93.359375 132.609375 97.695312 130.40625 101.246094 C 128.40625 104.457031 129.375 106.1875 131.753906 108.410156 C 137.507812 113.824219 143.167969 119.351562 148.535156 125.148438 C 151.1875 128 153.367188 128.652344 157.296875 127.484375 C 166.710938 124.675781 174.980469 127.484375 181.449219 134.832031 C 187.628906 141.839844 189.246094 150.109375 185.539062 158.621094 C 181.785156 167.292969 174.730469 172.011719 165.09375 172.597656 C 161.925781 172.777344 159.027344 171.898438 155.726562 170.933594 Z M 155.726562 170.933594 "/><path style=" stroke:none;fill-rule:nonzero;fill:#fef3c7;fill-opacity:1;" d="M 191.109375 221.820312 C 189.246094 227.097656 184.773438 232.289062 177.789062 234.691406 C 172.753906 236.421875 175.023438 240.308594 174.507812 243.363281 C 174.191406 245.296875 173.699219 247.113281 176.527344 248.507812 C 186.570312 253.472656 190.480469 260.683594 188.390625 269.109375 C 186.414062 277.0625 177 283.9375 167.722656 284.207031 C 157.746094 284.5 148.917969 278.5 146.851562 270.03125 C 144.761719 261.472656 149.367188 252.621094 159.164062 249.046875 C 164.53125 247.070312 163.117188 243.363281 163.8125 239.835938 C 164.578125 235.996094 162.039062 234.894531 159.363281 233.5 C 148.714844 227.953125 144.917969 216.113281 150.019531 204.746094 C 154.738281 194.230469 167.136719 189.152344 178.328125 193.175781 C 188.886719 196.925781 194.929688 209.171875 191.109375 221.820312 Z M 191.109375 221.820312 "/><path style=" stroke:none;fill-rule:nonzero;fill:#fef3c7;fill-opacity:1;" d="M 212.722656 140.917969 C 216.539062 128.269531 228.46875 122.429688 240.917969 127.484375 C 243.703125 128.628906 245.140625 128.25 246.847656 126.160156 C 248.578125 124.023438 250.464844 122.003906 252.417969 120.070312 C 257.765625 114.835938 259.539062 110.097656 258.460938 101.335938 C 256.621094 86.371094 245.207031 80.753906 237.230469 71.613281 C 235.769531 69.925781 233.703125 70.625 231.863281 70.355469 C 222.832031 69.027344 214.496094 66.242188 208.476562 58.808594 C 205.871094 55.570312 203.285156 51.730469 205.914062 47.886719 C 208.339844 44.359375 212.496094 46.070312 215.933594 47.191406 C 224.292969 49.933594 233.703125 52.851562 237.636719 60.605469 C 242.847656 70.894531 252.105469 76.847656 258.910156 85.269531 C 259.96875 86.574219 261 87.96875 262.910156 88.167969 C 276.949219 89.628906 280.296875 101.378906 284.835938 111.601562 C 286.363281 115.039062 285.714844 119.464844 282.230469 122.046875 C 278.613281 124.722656 274.703125 123.171875 271.582031 120.945312 C 268.390625 118.699219 266.371094 119.058594 264.257812 122.117188 C 263.066406 123.84375 261.675781 125.507812 260.125 126.945312 C 254.394531 132.269531 251.878906 137.28125 255.5625 145.863281 C 259.988281 156.171875 253.8125 168.507812 244.511719 172.820312 C 234.804688 177.3125 222.695312 173.335938 216.25 163.429688 C 211.710938 156.464844 210.363281 148.960938 212.722656 140.917969 Z M 212.722656 140.917969 "/><path style=" stroke:none;fill-rule:nonzero;fill:#fef3c7;fill-opacity:1;" d="M 153.769531 333.832031 C 148.941406 332.351562 145.414062 330.621094 142.492188 327.699219 C 137.550781 322.757812 131.550781 322.332031 125.621094 326.417969 C 115.558594 333.363281 93.113281 326.328125 88.621094 314.804688 C 86.464844 309.253906 89.316406 304.558594 96.011719 302.222656 C 97.964844 301.527344 101.988281 302.652344 101.269531 298.875 C 100.480469 294.742188 103.109375 289.351562 97.046875 286.746094 C 92.058594 284.609375 88.238281 280.882812 85.453125 276.117188 C 77.433594 262.371094 85.40625 247.925781 101.359375 247.363281 C 112.320312 246.980469 123.261719 254.101562 127.105469 264.097656 C 131.125 274.613281 126.789062 284.363281 116.367188 288.476562 C 114.386719 289.261719 110.75 288.722656 111.625 292.542969 C 112.523438 296.472656 109.511719 301.550781 115.332031 304.132812 C 120.433594 306.402344 124.632812 309.882812 127.890625 314.667969 C 130.519531 318.535156 138.5625 318.308594 141.660156 314.871094 C 150.152344 305.4375 169.496094 304.761719 178.707031 313.546875 C 184.773438 319.34375 184.300781 326.351562 177.179688 330.734375 C 169.609375 335.449219 161.34375 335.988281 153.769531 333.832031 Z M 153.769531 333.832031 "/><path style=" stroke:none;fill-rule:nonzero;fill:#fef3c7;fill-opacity:1;" d="M 273.402344 275.152344 C 270.300781 277.488281 267.378906 280.027344 263.628906 281.511719 C 257.855469 283.78125 254.375 282.542969 252.195312 276.816406 C 250.195312 271.582031 244.015625 270.570312 240.691406 275.398438 C 236.917969 280.882812 232.445312 285.171875 226.425781 287.980469 C 223.011719 289.574219 223.460938 293.238281 222.765625 296.113281 C 221.976562 299.347656 225.28125 298.40625 226.808594 299.125 C 232.066406 301.59375 233.121094 305.839844 230.445312 311.277344 C 227.371094 317.589844 208.429688 327.40625 199.871094 324.847656 C 194.320312 323.183594 192.210938 319.882812 194.210938 314.332031 C 196.480469 307.996094 201.511719 304.179688 207.351562 301.84375 C 211.734375 300.089844 213.394531 297.484375 213.84375 293.035156 C 214.316406 288.386719 210.25 289.148438 208.183594 287.867188 C 201.78125 283.871094 199.085938 277.398438 201.128906 269.445312 C 204.050781 257.964844 215.238281 249.113281 227.078125 249.160156 C 233.773438 249.183594 239.050781 251.855469 242.242188 258.167969 C 243.253906 260.167969 242.332031 263.988281 246.800781 263.289062 C 250.53125 262.707031 254.035156 262.796875 256.191406 258.484375 C 259.359375 252.191406 264.347656 247.339844 271.289062 245.207031 C 279.109375 242.800781 283.9375 246.574219 283.625 254.796875 C 283.398438 260.257812 281.511719 265.222656 277.960938 269.445312 C 273.46875 269.648438 274.996094 266.480469 275.042969 264.1875 C 275.109375 261.785156 277.492188 259.382812 274.996094 257 C 268.660156 256.460938 261.695312 263.019531 262.28125 268.953125 C 262.527344 271.492188 263.742188 272.523438 266.28125 271.894531 C 268.59375 271.3125 270.617188 269.492188 273.246094 270.097656 C 275.761719 271.738281 275.0625 273.421875 273.402344 275.152344 Z M 273.402344 275.152344 "/><path style=" stroke:none;fill-rule:nonzero;fill:#fef3c7;fill-opacity:1;" d="M 182.011719 75.699219 C 186.167969 77.386719 190.390625 80.105469 193.3125 84.597656 C 197.128906 90.460938 203.511719 90.527344 207.867188 85 C 211.554688 80.328125 216.675781 79.25 222.222656 80.464844 C 229.707031 82.105469 235.164062 86.621094 238.847656 93.222656 C 242.308594 99.449219 242.0625 106.050781 238.085938 110.253906 C 233.433594 115.152344 227.550781 115.195312 221.683594 113.285156 C 215.730469 111.355469 211.082031 107.511719 207.9375 101.984375 C 204.273438 95.539062 197.152344 95.246094 193.332031 101.355469 C 189.355469 107.757812 180.527344 110.949219 171.652344 109.199219 C 163.140625 107.511719 156.332031 101.3125 155.007812 93.988281 C 152.648438 80.890625 167.070312 70.734375 182.011719 75.699219 Z M 182.011719 75.699219 "/><path style=" stroke:none;fill-rule:nonzero;fill:#fef3c7;fill-opacity:1;" d="M 300.988281 168.035156 C 299.957031 171.023438 298.898438 173.898438 296.542969 176.144531 C 290.046875 182.324219 290.046875 187.738281 296.40625 193.9375 C 307.101562 204.363281 301.347656 230.625 287.332031 235.523438 C 281.242188 237.65625 274.816406 234.46875 271.648438 227.703125 C 266.730469 217.234375 270.617188 201.238281 279.894531 193.804688 C 285.804688 189.0625 285.804688 180.527344 279.917969 175.675781 C 270.816406 168.191406 267.335938 151.882812 272.636719 141.570312 C 276.996094 133.078125 286.386719 131.214844 292.992188 138.066406 C 301.078125 146.445312 303.933594 156.554688 300.988281 168.035156 Z M 300.988281 168.035156 "/><path style=" stroke:none;fill-rule:nonzero;fill:#fef3c7;fill-opacity:1;" d="M 246.511719 217.214844 C 243.074219 228.132812 232.984375 234.21875 223.304688 231.210938 C 213.867188 228.265625 209.015625 217.84375 212.203125 207.417969 C 215.507812 196.722656 225.886719 190.480469 235.523438 193.421875 C 244.914062 196.273438 249.769531 206.835938 246.511719 217.214844 Z M 246.511719 217.214844 "/><path style=" stroke:none;fill-rule:nonzero;fill:#fef3c7;fill-opacity:1;" d="M 86.574219 169.789062 C 75.859375 166.304688 70.109375 154.894531 73.523438 143.816406 C 77.320312 131.507812 90.035156 124.472656 101.671875 128.25 C 112.816406 131.867188 118.679688 143.886719 114.792969 155.253906 C 110.75 167.09375 98.214844 173.5625 86.574219 169.789062 Z M 86.574219 169.789062 "/><path style=" stroke:none;fill-rule:nonzero;fill:#fef3c7;fill-opacity:1;" d="M 95.808594 64.671875 C 85.945312 61.457031 84.082031 54.605469 90.574219 48.652344 C 98.773438 41.148438 108.636719 38.363281 119.535156 40.902344 C 128.632812 43.035156 130.699219 50.246094 124.050781 56.695312 C 115.714844 64.738281 105.46875 66.332031 95.808594 64.671875 Z M 95.808594 64.671875 "/><path style=" stroke:none;fill-rule:nonzero;fill:#fef3c7;fill-opacity:1;" d="M 273.402344 275.152344 C 273.738281 273.421875 274.792969 271.492188 272.144531 270.59375 C 272.167969 265.132812 275.0625 260.234375 275.242188 254.820312 C 279.714844 255.585938 278.253906 258.484375 277.871094 261.359375 C 277.511719 264.007812 273.894531 266.863281 277.984375 269.445312 C 277.152344 271.941406 275.582031 273.78125 273.402344 275.152344 Z M 273.402344 275.152344 "/><path style=" stroke:none;fill-rule:nonzero;fill:#fef3c7;fill-opacity:1;" d="M 273.402344 275.152344 L 283.625 254.796875 L 274.324219 250.171875 L 256.082031 263.875 L 259.832031 272.253906 L 260.078125 276.050781 Z M 273.402344 275.152344 "/></g></svg>