<svg xmlns="http://www.w3.org/2000/svg" xmlns:xlink="http://www.w3.org/1999/xlink" width="500" zoomAndPan="magnify" viewBox="0 0 375 374.999991" height="500" preserveAspectRatio="xMidYMid meet" version="1.2"><g id="378d8d0cb2"><path style=" stroke:none;fill-rule:nonzero;fill:#ea580c;fill-opacity:1;" d="M 155.890625 170.933594 C 152.695312 168.460938 150.175781 169.988281 147.386719 172.753906 C 140.910156 179.179688 134.273438 185.46875 127.390625 191.421875 C 124.578125 193.847656 124.328125 195.734375 125.566406 199.105469 C 129.839844 210.808594 124.421875 222.695312 113.171875 227.097656 C 102.105469 231.433594 88.855469 225.503906 84.015625 214.023438 C 79.269531 202.8125 83.792969 190.007812 94.34375 184.90625 C 100.371094 181.988281 106.601562 181.851562 112.566406 184.726562 C 115.285156 186.03125 116.863281 185.671875 118.886719 183.738281 C 126.21875 176.730469 133.664062 169.832031 141.113281 162.957031 C 142.820312 161.386719 143.25 159.925781 142.328125 157.632812 C 139.761719 151.296875 139.898438 144.917969 143.160156 138.851562 C 144.125 137.03125 143.8125 135.886719 142.507812 134.582031 C 135.804688 127.820312 129.078125 121.058594 122.441406 114.230469 C 120.976562 112.726562 119.539062 112.164062 117.625 113.195312 C 117.445312 113.285156 117.242188 113.332031 117.042969 113.375 C 103.519531 117.261719 92.65625 112.746094 90.316406 102.234375 C 88 91.832031 98.390625 79.835938 111.148438 78.21875 C 111.753906 78.148438 112.429688 77.96875 112.96875 78.171875 C 123.566406 81.96875 130.359375 74.847656 137.828125 69.636719 C 139.492188 68.46875 141.179688 67.34375 142.957031 66.355469 C 147.050781 64.0625 151.011719 62.199219 147.386719 56.089844 C 145.542969 52.988281 148.175781 49.976562 151.03125 47.957031 C 159.601562 41.914062 177.464844 44.226562 184.304688 52.269531 C 188.082031 56.71875 186.957031 62.421875 181.515625 65.613281 C 175.148438 69.34375 168.195312 69.074219 161.378906 67.523438 C 158.296875 66.828125 155.980469 67.074219 153.484375 68.894531 C 147.09375 73.542969 140.59375 78.082031 134.09375 82.574219 C 131.527344 84.351562 130.15625 85.992188 131.597656 89.496094 C 133.171875 93.359375 132.742188 97.695312 130.539062 101.246094 C 128.535156 104.457031 129.503906 106.1875 131.886719 108.410156 C 137.648438 113.824219 143.316406 119.351562 148.691406 125.148438 C 151.347656 128 153.53125 128.652344 157.464844 127.484375 C 166.890625 124.675781 175.171875 127.484375 181.648438 134.832031 C 187.835938 141.839844 189.457031 150.109375 185.742188 158.621094 C 181.988281 167.292969 174.921875 172.011719 165.273438 172.597656 C 162.101562 172.777344 159.199219 171.898438 155.890625 170.933594 Z M 155.890625 170.933594 "/><path style=" stroke:none;fill-rule:nonzero;fill:#ea580c;fill-opacity:1;" d="M 191.324219 221.820312 C 189.457031 227.097656 184.976562 232.289062 177.980469 234.691406 C 172.941406 236.421875 175.214844 240.308594 174.699219 243.363281 C 174.382812 245.296875 173.886719 247.113281 176.722656 248.507812 C 186.777344 253.472656 190.691406 260.683594 188.601562 269.109375 C 186.621094 277.0625 177.195312 283.9375 167.902344 284.207031 C 157.917969 284.5 149.074219 278.5 147.003906 270.03125 C 144.914062 261.472656 149.523438 252.621094 159.332031 249.046875 C 164.710938 247.070312 163.292969 243.363281 163.988281 239.835938 C 164.753906 235.996094 162.210938 234.894531 159.535156 233.5 C 148.871094 227.953125 145.070312 216.113281 150.175781 204.746094 C 154.902344 194.230469 167.320312 189.152344 178.523438 193.175781 C 189.09375 196.925781 195.148438 209.171875 191.324219 221.820312 Z M 191.324219 221.820312 "/><path style=" stroke:none;fill-rule:nonzero;fill:#ea580c;fill-opacity:1;" d="M 212.964844 140.917969 C 216.789062 128.269531 228.734375 122.429688 241.195312 127.484375 C 243.984375 128.628906 245.425781 128.25 247.132812 126.160156 C 248.867188 124.023438 250.757812 122.003906 252.714844 120.070312 C 258.066406 114.835938 259.84375 110.097656 258.765625 101.335938 C 256.917969 86.371094 245.492188 80.753906 237.507812 71.613281 C 236.042969 69.925781 233.972656 70.625 232.128906 70.355469 C 223.085938 69.027344 214.742188 66.242188 208.710938 58.808594 C 206.101562 55.570312 203.515625 51.730469 206.148438 47.886719 C 208.578125 44.359375 212.738281 46.070312 216.179688 47.191406 C 224.546875 49.933594 233.972656 52.851562 237.910156 60.605469 C 243.128906 70.894531 252.398438 76.847656 259.214844 85.269531 C 260.273438 86.574219 261.304688 87.96875 263.21875 88.167969 C 277.277344 89.628906 280.628906 101.378906 285.175781 111.601562 C 286.703125 115.039062 286.050781 119.464844 282.566406 122.046875 C 278.941406 124.722656 275.027344 123.171875 271.902344 120.945312 C 268.707031 118.699219 266.683594 119.058594 264.570312 122.117188 C 263.375 123.84375 261.980469 125.507812 260.429688 126.945312 C 254.691406 132.269531 252.171875 137.28125 255.863281 145.863281 C 260.292969 156.171875 254.109375 168.507812 244.792969 172.820312 C 235.078125 177.3125 222.953125 173.335938 216.496094 163.429688 C 211.949219 156.464844 210.601562 148.960938 212.964844 140.917969 Z M 212.964844 140.917969 "/><path style=" stroke:none;fill-rule:nonzero;fill:#ea580c;fill-opacity:1;" d="M 153.933594 333.832031 C 149.097656 332.351562 145.566406 330.621094 142.640625 327.699219 C 137.691406 322.757812 131.6875 322.332031 125.746094 326.417969 C 115.667969 333.363281 93.195312 326.328125 88.695312 314.804688 C 86.535156 309.253906 89.394531 304.558594 96.097656 302.222656 C 98.054688 301.527344 102.082031 302.652344 101.363281 298.875 C 100.574219 294.742188 103.207031 289.351562 97.132812 286.746094 C 92.136719 284.609375 88.3125 280.882812 85.523438 276.117188 C 77.492188 262.371094 85.480469 247.925781 101.453125 247.363281 C 112.429688 246.980469 123.386719 254.101562 127.230469 264.097656 C 131.257812 274.613281 126.917969 284.363281 116.480469 288.476562 C 114.5 289.261719 110.855469 288.722656 111.730469 292.542969 C 112.632812 296.472656 109.617188 301.550781 115.445312 304.132812 C 120.550781 306.402344 124.757812 309.882812 128.019531 314.667969 C 130.652344 318.535156 138.703125 318.308594 141.808594 314.871094 C 150.3125 305.4375 169.679688 304.761719 178.90625 313.546875 C 184.976562 319.34375 184.507812 326.351562 177.375 330.734375 C 169.792969 335.449219 161.515625 335.988281 153.933594 333.832031 Z M 153.933594 333.832031 "/><path style=" stroke:none;fill-rule:nonzero;fill:#ea580c;fill-opacity:1;" d="M 273.722656 275.152344 C 270.621094 277.488281 267.695312 280.027344 263.9375 281.511719 C 258.15625 283.78125 254.671875 282.542969 252.488281 276.816406 C 250.484375 271.582031 244.300781 270.570312 240.96875 275.398438 C 237.191406 280.882812 232.714844 285.171875 226.6875 287.980469 C 223.265625 289.574219 223.714844 293.238281 223.019531 296.113281 C 222.230469 299.347656 225.539062 298.40625 227.066406 299.125 C 232.332031 301.59375 233.390625 305.839844 230.710938 311.277344 C 227.628906 317.589844 208.667969 327.40625 200.09375 324.847656 C 194.539062 323.183594 192.425781 319.882812 194.425781 314.332031 C 196.699219 307.996094 201.738281 304.179688 207.585938 301.84375 C 211.972656 300.089844 213.636719 297.484375 214.089844 293.035156 C 214.558594 288.386719 210.488281 289.148438 208.417969 287.867188 C 202.007812 283.871094 199.308594 277.398438 201.355469 269.445312 C 204.28125 257.964844 215.484375 249.113281 227.339844 249.160156 C 234.042969 249.183594 239.328125 251.855469 242.523438 258.167969 C 243.535156 260.167969 242.613281 263.988281 247.089844 263.289062 C 250.824219 262.707031 254.332031 262.796875 256.492188 258.484375 C 259.664062 252.191406 264.660156 247.339844 271.609375 245.207031 C 279.4375 242.800781 284.273438 246.574219 283.960938 254.796875 C 283.734375 260.257812 281.84375 265.222656 278.289062 269.445312 C 273.792969 269.648438 275.320312 266.480469 275.367188 264.1875 C 275.433594 261.785156 277.820312 259.382812 275.320312 257 C 268.976562 256.460938 262.003906 263.019531 262.589844 268.953125 C 262.835938 271.492188 264.050781 272.523438 266.59375 271.894531 C 268.910156 271.3125 270.933594 269.492188 273.566406 270.097656 C 276.085938 271.738281 275.390625 273.421875 273.722656 275.152344 Z M 273.722656 275.152344 "/><path style=" stroke:none;fill-rule:nonzero;fill:#ea580c;fill-opacity:1;" d="M 182.210938 75.699219 C 186.375 77.386719 190.601562 80.105469 193.527344 84.597656 C 197.351562 90.460938 203.738281 90.527344 208.105469 85 C 211.792969 80.328125 216.921875 79.25 222.480469 80.464844 C 229.96875 82.105469 235.4375 86.621094 239.125 93.222656 C 242.589844 99.449219 242.34375 106.050781 238.359375 110.253906 C 233.703125 115.152344 227.808594 115.195312 221.9375 113.285156 C 215.976562 111.355469 211.320312 107.511719 208.171875 101.984375 C 204.503906 95.539062 197.375 95.246094 193.550781 101.355469 C 189.566406 107.757812 180.726562 110.949219 171.839844 109.199219 C 163.316406 107.511719 156.5 101.3125 155.171875 93.988281 C 152.808594 80.890625 167.25 70.734375 182.210938 75.699219 Z M 182.210938 75.699219 "/><path style=" stroke:none;fill-rule:nonzero;fill:#ea580c;fill-opacity:1;" d="M 301.347656 168.035156 C 300.3125 171.023438 299.257812 173.898438 296.894531 176.144531 C 290.394531 182.324219 290.394531 187.738281 296.761719 193.9375 C 307.46875 204.363281 301.707031 230.625 287.671875 235.523438 C 281.574219 237.65625 275.140625 234.46875 271.96875 227.703125 C 267.042969 217.234375 270.933594 201.238281 280.226562 193.804688 C 286.140625 189.0625 286.140625 180.527344 280.246094 175.675781 C 271.136719 168.191406 267.648438 151.882812 272.960938 141.570312 C 277.324219 133.078125 286.726562 131.214844 293.339844 138.066406 C 301.4375 146.445312 304.296875 156.554688 301.347656 168.035156 Z M 301.347656 168.035156 "/><path style=" stroke:none;fill-rule:nonzero;fill:#ea580c;fill-opacity:1;" d="M 246.796875 217.214844 C 243.355469 228.132812 233.253906 234.21875 223.558594 231.210938 C 214.109375 228.265625 209.25 217.84375 212.445312 207.417969 C 215.753906 196.722656 226.144531 190.480469 235.796875 193.421875 C 245.199219 196.273438 250.058594 206.835938 246.796875 217.214844 Z M 246.796875 217.214844 "/><path style=" stroke:none;fill-rule:nonzero;fill:#ea580c;fill-opacity:1;" d="M 86.648438 169.789062 C 75.917969 166.304688 70.160156 154.894531 73.578125 143.816406 C 77.382812 131.507812 90.113281 124.472656 101.765625 128.25 C 112.925781 131.867188 118.796875 143.886719 114.902344 155.253906 C 110.855469 167.09375 98.300781 173.5625 86.648438 169.789062 Z M 86.648438 169.789062 "/><path style=" stroke:none;fill-rule:nonzero;fill:#ea580c;fill-opacity:1;" d="M 95.894531 64.671875 C 86.019531 61.457031 84.152344 54.605469 90.652344 48.652344 C 98.863281 41.148438 108.742188 38.363281 119.652344 40.902344 C 128.761719 43.035156 130.832031 50.246094 124.171875 56.695312 C 115.828125 64.738281 105.570312 66.332031 95.894531 64.671875 Z M 95.894531 64.671875 "/><path style=" stroke:none;fill-rule:nonzero;fill:#ea580c;fill-opacity:1;" d="M 273.722656 275.152344 C 274.0625 273.421875 275.117188 271.492188 272.464844 270.59375 C 272.488281 265.132812 275.390625 260.234375 275.570312 254.820312 C 280.046875 255.585938 278.582031 258.484375 278.199219 261.359375 C 277.839844 264.007812 274.21875 266.863281 278.3125 269.445312 C 277.480469 271.941406 275.90625 273.78125 273.722656 275.152344 Z M 273.722656 275.152344 "/><path style=" stroke:none;fill-rule:nonzero;fill:#ea580c;fill-opacity:1;" d="M 273.722656 275.152344 L 283.960938 254.796875 L 274.648438 250.171875 L 256.378906 263.875 L 260.136719 272.253906 L 260.382812 276.050781 Z M 273.722656 275.152344 "/></g></svg>